HIERARCHY
ROOT Hips
{
 OFFSET 0.000000 0.000000 0.000000
 CHANNELS 6 Xposition Yposition Zposition Yrotation Xrotation Zrotation
 JOINT Chest
 {
  OFFSET 0.000000 9.581000 -0.001100
  CHANNELS 3 Yrotation Xrotation Zrotation
  JOINT Chest2
  {
   OFFSET 0.000000 9.561100 0.002200
   CHANNELS 3 Yrotation Xrotation Zrotation
   JOINT Chest3
   {
    OFFSET 0.000000 9.521100 0.000000
    CHANNELS 3 Yrotation Xrotation Zrotation
    JOINT Chest4
    {
     OFFSET 0.000000 9.511400 0.000000
     CHANNELS 3 Yrotation Xrotation Zrotation
     JOINT Neck
     {
      OFFSET 0.000000 14.375100 0.000000
      CHANNELS 3 Yrotation Xrotation Zrotation
      JOINT Head
      {
       OFFSET 0.000000 8.901200 0.004600
       CHANNELS 3 Yrotation Xrotation Zrotation
       End Site
       {
        OFFSET 0.000000 16.962200 0.002400
       }
      }
     }
     JOINT RightCollar
     {
      OFFSET -2.920100 9.518800 0.000000
      CHANNELS 3 Yrotation Xrotation Zrotation
      JOINT RightShoulder
      {
       OFFSET -13.664500 0.000000 0.000000
       CHANNELS 3 Yrotation Xrotation Zrotation
       JOINT RightElbow
       {
        OFFSET 0.000000 -29.999200 0.000000
        CHANNELS 3 Yrotation Xrotation Zrotation
        JOINT RightWrist
        {
         OFFSET 0.000000 -24.253600 0.000000
         CHANNELS 3 Yrotation Xrotation Zrotation
         End Site
         {
          OFFSET 0.000000 -17.918900 0.000000
         }
        }
       }
      }
     }
     JOINT LeftCollar
     {
      OFFSET 2.920100 9.518800 0.000000
      CHANNELS 3 Yrotation Xrotation Zrotation
      JOINT LeftShoulder
      {
       OFFSET 13.664500 0.000000 0.000000
       CHANNELS 3 Yrotation Xrotation Zrotation
       JOINT LeftElbow
       {
        OFFSET 0.000000 -29.999200 0.000000
        CHANNELS 3 Yrotation Xrotation Zrotation
        JOINT LeftWrist
        {
         OFFSET 0.000000 -24.253600 0.000000
         CHANNELS 3 Yrotation Xrotation Zrotation
         End Site
         {
          OFFSET 0.000000 -17.918900 0.000000
         }
        }
       }
      }
     }
    }
   }
  }
 }
 JOINT RightHip
 {
  OFFSET -7.797300 0.005300 0.000500
  CHANNELS 3 Yrotation Xrotation Zrotation
  JOINT RightKnee
  {
   OFFSET 0.000000 -40.663400 -0.000500
   CHANNELS 3 Yrotation Xrotation Zrotation
   JOINT RightAnkle
   {
    OFFSET 0.000000 -39.523700 -0.000900
    CHANNELS 3 Yrotation Xrotation Zrotation
    JOINT RightToe
    {
     OFFSET 0.000000 -6.418000 14.485300
     CHANNELS 3 Yrotation Xrotation Zrotation
     End Site
     {
      OFFSET 0.000000 -1.465200 6.326400
     }
    }
   }
  }
 }
 JOINT LeftHip
 {
  OFFSET 7.797300 0.005300 0.000500
  CHANNELS 3 Yrotation Xrotation Zrotation
  JOINT LeftKnee
  {
   OFFSET 0.000000 -40.663400 -0.000500
   CHANNELS 3 Yrotation Xrotation Zrotation
   JOINT LeftAnkle
   {
    OFFSET 0.000000 -39.523700 -0.000900
    CHANNELS 3 Yrotation Xrotation Zrotation
    JOINT LeftToe
    {
     OFFSET 0.000000 -6.418000 14.485300
     CHANNELS 3 Yrotation Xrotation Zrotation
     End Site
     {
      OFFSET 0.000000 -1.465200 6.326400
     }
    }
   }
  }
 }
}
MOTION
Frames: 7
Frame Time: 0.008333
0.000000 86.422400 0.000000 0.000000 -5.767877 0.000000 0.000000 11.653817 0.000000 0.000000 -5.885947 0.000000 0.000000 -0.000000 0.000000 0.000000 -0.000000 0.000000 0.000000 12.528835 0.000000 0.000000 0.711642 0.000000 0.000000 -0.000000 0.000000 0.000000 0.000000 -90.000000 0.000000 -2.309062 0.000000 0.000000 2.309062 0.000000 0.000000 -0.000000 0.000000 0.000000 -0.000000 90.000000 0.000000 -2.309062 0.000000 0.000000 2.309062 0.000000 0.000000 8.520406 0.000000 0.000000 1.905762 0.000000 -0.000000 -4.658285 0.000000 0.000000 -0.000000 0.000000 0.000000 8.520406 0.000000 0.000000 1.905762 0.000000 -0.000000 -4.658285 0.000000 0.000000 -0.000000 0.000000
-14.334650 126.912333 25.105994 -168.535052 -48.390004 -2.091779 -2.476639 25.772984 0.366188 -0.411927 4.216607 0.140851 -0.654025 6.707970 0.215962 -2.016849 21.262010 0.369200 1.362083 15.104779 -2.612015 2.023056 -9.852481 -3.043830 -1.113667 1.988467 0.227935 5.590759 -3.319128 -9.746256 -86.791451 -61.895087 140.854966 2.137354 19.109320 -9.224171 -7.739734 -1.998760 1.312281 -11.135796 -2.601313 11.752387 59.063256 -48.241797 -111.099158 4.396331 2.944863 17.337985 -5.133685 -24.189247 -5.826562 -6.085257 78.611276 -5.444979 6.913083 -15.097066 2.389306 -0.000306 -0.003121 -0.000135 6.274138 5.679027 1.129715 127.892926 65.498655 147.190445 6.341674 12.139763 0.348078 -0.005864 0.003330 -0.002598
-14.334552 126.913076 25.104928 -168.533247 -48.392100 -2.091934 -2.455825 25.807470 0.356034 -0.423065 4.200405 0.151163 -0.644882 6.737772 0.202745 -2.003040 21.295439 0.344866 1.341783 14.999793 -2.599331 1.978423 -9.993908 -3.122405 -1.142424 1.962969 0.245338 5.469050 -3.364523 -9.700258 -86.507506 -61.832316 140.620855 2.149298 19.101535 -9.223652 -7.758754 -2.005609 1.333095 -11.036278 -2.703088 11.649989 58.815014 -48.135150 -110.847961 4.469531 2.853519 17.386074 -5.137235 -24.185137 -5.827779 -6.081576 78.609041 -5.441825 6.916042 -15.097120 2.386843 -0.000148 -0.003279 -0.000066 6.274131 5.683042 1.142841 127.903576 65.510534 147.200526 6.344030 12.153568 0.322988 -0.002466 0.002941 -0.001093
-14.335192 126.913722 25.103833 -168.528005 -48.391674 -2.090787 -2.448362 25.828310 0.344582 -0.405438 4.241164 0.131788 -0.651362 6.723156 0.213031 -1.993716 21.310320 0.334411 1.286846 14.873307 -2.664561 1.945213 -10.102112 -3.134827 -1.164991 1.951884 0.254244 5.338053 -3.396392 -9.652836 -86.326993 -61.808760 140.467639 2.166305 19.090538 -9.230445 -7.773297 -1.992358 1.344152 -10.917379 -2.809955 11.559781 58.541712 -47.995441 -110.617663 4.548414 2.751041 17.453960 -5.140751 -24.183840 -5.830209 -6.069566 78.608834 -5.428107 6.897137 -15.096917 2.382038 -0.000648 -0.002920 -0.000287 6.269336 5.684874 1.144341 127.899567 65.514960 147.194487 6.343646 12.164909 0.308284 -0.002151 0.001964 -0.000953
-14.335496 126.912949 25.103736 -168.534224 -48.377937 -2.082872 -2.441897 25.821643 0.339399 -0.394806 4.278503 0.113628 -0.635703 6.771370 0.191609 -1.987505 21.278390 0.354234 1.225342 14.743392 -2.731024 1.909059 -10.213576 -3.149484 -1.183606 1.939155 0.259949 5.276786 -3.431455 -9.613004 -86.256636 -61.812181 140.331086 2.191396 19.062042 -9.255392 -7.786267 -2.017416 1.376379 -10.784678 -2.883590 11.450481 58.247553 -47.828216 -110.407804 4.628831 2.618614 17.553120 -5.136931 -24.198578 -5.830294 -6.047107 78.610254 -5.405418 6.886595 -15.094200 2.377581 -0.000944 -0.002066 -0.000418 6.272875 5.672811 1.144041 127.897731 65.518102 147.194282 6.342428 12.172055 0.298091 -0.001452 0.000225 -0.000643
-14.335493 126.912833 25.102752 -168.529942 -48.367227 -2.087055 -2.435135 25.838687 0.330277 -0.398253 4.268664 0.120023 -0.634185 6.776323 0.190225 -1.980513 21.312176 0.334584 1.202025 14.656264 -2.737644 1.846359 -10.369250 -3.221503 -1.200117 1.927809 0.262393 5.221342 -3.460769 -9.573314 -86.246877 -61.835661 140.246387 2.229476 19.007024 -9.314847 -7.798393 -1.992234 1.382929 -10.645728 -2.999127 11.380287 57.936959 -47.646433 -110.215182 4.708441 2.437934 17.694457 -5.142006 -24.208020 -5.828335 -6.019859 78.610698 -5.381213 6.896119 -15.092011 2.378538 -0.000167 -0.002061 -0.000074 6.270114 5.664375 1.145936 127.897325 65.505598 147.193787 6.324355 12.142401 0.336206 0.000285 -0.003220 0.000126
-14.335589 126.913424 25.100922 -168.531062 -48.360655 -2.089233 -2.425217 25.883398 0.311181 -0.400267 4.235543 0.137862 -0.632791 6.780863 0.188966 -1.977113 21.342250 0.317290 1.181155 14.571756 -2.747579 1.788428 -10.526199 -3.293668 -1.207325 1.898424 0.277541 5.045758 -3.380071 -9.506770 -86.344118 -61.902956 140.400023 2.285485 18.920801 -9.420974 -7.808214 -1.960579 1.381909 -10.513739 -3.111555 11.321567 57.625596 -47.465033 -110.040465 4.785603 2.202452 17.878688 -5.139616 -24.215174 -5.825464 -6.014850 78.614862 -5.374336 6.903826 -15.082528 2.378505 0.000453 -0.001499 0.000201 6.266839 5.663514 1.151927 127.896382 65.505846 147.192162 6.316213 12.136758 0.334546 0.001937 -0.004227 0.000858
